<?xml version="1.0" encoding="utf-8"?>
<!-- Generator: Adobe Illustrator 26.0.2, SVG Export Plug-In . SVG Version: 6.00 Build 0)  -->
<svg version="1.1" id="Layer_1" xmlns="http://www.w3.org/2000/svg" xmlns:xlink="http://www.w3.org/1999/xlink" x="0px" y="0px"
	 viewBox="0 0 16 16" style="enable-background:new 0 0 16 16;" xml:space="preserve">
<style type="text/css">
	.st0{fill:#FFFFFF;}
</style>
<path class="st0" d="M8,11c-1.7,0-3-1.3-3-3s1.3-3,3-3s3,1.3,3,3S9.7,11,8,11z M8,6C6.9,6,6,6.9,6,8s0.9,2,2,2s2-0.9,2-2S9.1,6,8,6z
	"/>
<path class="st0" d="M8.5,16h-1C6.7,16,6,15.3,6,14.5l0,0v-0.9c-0.2-0.1-0.4-0.1-0.6-0.2L4.8,14c-0.6,0.6-1.5,0.6-2.1,0L2,13.3
	c-0.6-0.6-0.6-1.5,0-2.1l0.6-0.6c-0.1-0.2-0.2-0.4-0.2-0.6H1.5C0.7,10,0,9.3,0,8.5v-1C0,6.7,0.7,6,1.5,6h0.8
	c0.1-0.2,0.1-0.4,0.2-0.6L2,4.8C1.4,4.2,1.4,3.3,2,2.7L2.7,2c0.6-0.6,1.5-0.6,2.1,0l0.6,0.6C5.6,2.5,5.8,2.4,6,2.4V1.5
	C6,0.7,6.7,0,7.5,0h1C9.3,0,10,0.7,10,1.5v0.9c0.2,0.1,0.4,0.1,0.6,0.2L11.2,2c0.6-0.6,1.5-0.6,2.1,0L14,2.7c0.6,0.6,0.6,1.5,0,2.1
	l-0.6,0.6c0.1,0.2,0.2,0.4,0.2,0.6h0.9C15.3,6,16,6.7,16,7.5c0,0,0,0,0,0v1c0,0.8-0.7,1.5-1.5,1.5h-0.9c-0.1,0.2-0.1,0.4-0.2,0.6
	l0.6,0.6c0.6,0.6,0.6,1.5,0,2.1L13.3,14c-0.6,0.6-1.5,0.6-2.1,0l-0.6-0.6c-0.2,0.1-0.4,0.2-0.6,0.2v0.9C10,15.3,9.3,16,8.5,16
	C8.5,16,8.5,16,8.5,16z M5.2,12.2l0.3,0.2c0.3,0.2,0.7,0.3,1.1,0.4L7,12.9v1.6C7,14.8,7.2,15,7.5,15h1C8.8,15,9,14.8,9,14.5v-1.6
	l0.4-0.1c0.4-0.1,0.7-0.3,1.1-0.4l0.3-0.2l1.1,1.1c0.2,0.2,0.5,0.2,0.7,0l0.7-0.7c0.2-0.2,0.2-0.5,0-0.7c0,0,0,0,0,0l-1.1-1.1
	l0.2-0.3c0.2-0.3,0.3-0.7,0.4-1.1L12.9,9h1.6C14.8,9,15,8.8,15,8.5v-1C15,7.2,14.8,7,14.5,7h-1.6l-0.1-0.4c-0.1-0.4-0.3-0.7-0.4-1.1
	l-0.2-0.3l1.1-1.1c0.2-0.2,0.2-0.5,0-0.7c0,0,0,0,0,0l-0.7-0.7c-0.2-0.2-0.5-0.2-0.7,0l-1.1,1.1l-0.3-0.2c-0.3-0.2-0.7-0.3-1.1-0.4
	L9,3.1V1.5C9,1.2,8.8,1,8.5,1h-1C7.2,1,7,1.2,7,1.5v1.6L6.6,3.2C6.3,3.3,5.9,3.4,5.6,3.6L5.2,3.8L4.1,2.7c-0.2-0.2-0.5-0.2-0.7,0
	L2.7,3.4c-0.2,0.2-0.2,0.5,0,0.7c0,0,0,0,0,0l1.1,1.1L3.6,5.6C3.5,5.9,3.3,6.3,3.2,6.6L3.1,7H1.5C1.2,7,1,7.2,1,7.5v1
	C1,8.8,1.2,9,1.5,9h1.6l0.1,0.4c0.1,0.4,0.3,0.7,0.4,1.1l0.2,0.3l-1.1,1.1c-0.2,0.2-0.2,0.5,0,0.7c0,0,0,0,0,0l0.7,0.7
	c0.2,0.2,0.5,0.2,0.7,0L5.2,12.2z"/>
</svg>
