<?xml version="1.0" encoding="utf-8"?>
<!-- Generator: Adobe Illustrator 26.0.2, SVG Export Plug-In . SVG Version: 6.00 Build 0)  -->
<svg version="1.1" id="Ebene_1" xmlns="http://www.w3.org/2000/svg" xmlns:xlink="http://www.w3.org/1999/xlink" x="0px" y="0px"
	 viewBox="0 0 48 48" style="enable-background:new 0 0 48 48;" xml:space="preserve">
<style type="text/css">
	.st0{fill:#FFFFFF;}
</style>
<g>
	<rect x="22.3" y="37.7" class="st0" width="3.4" height="3.4"/>
	<path class="st0" d="M25.7,34.3h-3.4v-3c-0.1-3.3,1.8-6.4,4.7-8c2.4-1.2,3.9-3.6,3.9-6.2c0-3.8-3.1-6.8-6.9-6.9
		c-3.8,0-6.9,3.1-6.9,6.9h-3.4c0-5.7,4.6-10.3,10.3-10.3c5.7,0.1,10.2,4.6,10.3,10.3c0,3.9-2.2,7.5-5.8,9.3c-1.8,1-2.9,2.9-2.8,4.9
		V34.3z"/>
</g>
</svg>
